<?xml version="1.0" standalone="no"?>
<!DOCTYPE svg PUBLIC "-//W3C//DTD SVG 20010904//EN"
 "http://www.w3.org/TR/2001/REC-SVG-20010904/DTD/svg10.dtd">
<svg version="1.0" xmlns="http://www.w3.org/2000/svg"
 width="702.000000pt" height="701.000000pt" viewBox="0 0 702.000000 701.000000"
 preserveAspectRatio="xMidYMid meet">

<g transform="translate(0.000000,701.000000) scale(0.100000,-0.100000)"
fill="#000000" stroke="none">
<path d="M1754 6928 c-146 -151 -239 -271 -352 -454 -43 -71 -78 -137 -76
-147 1 -9 -2 -15 -7 -12 -5 4 -22 -22 -38 -57 -164 -359 -240 -685 -241 -1035
0 -122 2 -142 15 -137 8 4 13 10 10 14 -5 8 35 48 40 40 2 -3 13 5 25 18 11
12 18 22 14 22 -3 0 -1 7 6 15 7 8 16 13 20 10 5 -3 16 5 24 17 9 12 16 18 16
12 0 -5 -25 -34 -55 -64 -30 -29 -51 -58 -48 -63 3 -6 2 -7 -4 -4 -6 4 -22 -7
-37 -24 l-27 -30 10 -98 c20 -193 51 -338 109 -518 l36 -111 -37 -119 c-90
-292 -120 -484 -120 -783 1 -208 21 -396 58 -545 9 -33 18 -73 21 -88 15 -77
103 -308 169 -442 131 -268 251 -438 460 -653 428 -442 1021 -709 1638 -739
120 -6 132 -9 128 -35 -2 -12 8 -10 48 11 25 14 74 23 165 30 71 6 131 10 133
8 1 -2 -48 -32 -110 -68 -216 -123 -232 -134 -235 -163 -2 -14 -1 -26 1 -26 3
0 28 16 57 35 29 19 55 35 59 35 4 0 92 49 195 109 161 94 200 112 279 132 96
23 293 88 362 119 22 10 51 21 65 24 23 7 24 6 5 -6 -11 -7 -22 -13 -25 -13
-26 -6 -60 -31 -56 -42 4 -8 1 -11 -5 -7 -6 3 -19 -3 -30 -15 -11 -12 -24 -19
-29 -16 -6 3 -64 -26 -131 -64 -66 -39 -124 -71 -130 -71 -5 0 -9 -4 -9 -8 0
-4 -15 -15 -32 -23 -33 -16 -257 -145 -264 -152 -3 -2 19 -2 48 1 36 3 72 16
113 40 33 19 80 46 105 60 25 13 81 46 125 72 44 26 96 57 115 67 151 84 225
129 228 135 2 5 8 8 13 8 5 0 46 22 91 49 78 46 442 256 518 298 19 11 59 34
88 52 29 17 54 31 56 31 2 0 43 24 92 53 49 29 114 67 144 84 138 77 324 190
327 198 1 6 -1 16 -6 24 -7 11 -16 10 -47 -9 -52 -31 -51 -30 -34 -40 8 -5 11
-12 7 -17 -5 -4 -12 -1 -16 6 -12 18 -36 9 -149 -58 -53 -32 -148 -87 -209
-123 -62 -36 -109 -69 -105 -73 4 -5 1 -5 -5 -1 -7 4 -36 -8 -66 -27 -30 -19
-63 -38 -75 -41 -12 -4 -22 -11 -22 -15 0 -4 -16 -13 -35 -20 -19 -7 -35 -17
-35 -22 0 -5 -5 -9 -11 -9 -7 0 -34 -14 -61 -31 -28 -16 -52 -29 -54 -27 -2 2
34 33 79 68 45 36 136 117 202 181 124 120 145 135 415 289 188 107 179 100
169 128 l-9 23 -40 -26 c-22 -14 -43 -25 -47 -25 -5 -1 -21 -11 -37 -25 -27
-21 -28 -25 -15 -42 13 -17 13 -17 -12 -1 -15 9 -30 13 -35 8 -5 -4 -37 -22
-72 -40 -46 -24 -62 -37 -57 -48 4 -11 2 -12 -8 -4 -10 9 -17 8 -27 -1 -17
-15 14 36 50 83 15 19 40 55 55 80 32 51 71 91 80 82 3 -4 9 -2 13 4 4 5 28
22 55 37 50 29 52 33 37 57 -8 12 -15 11 -49 -8 l-40 -23 69 143 c113 236 181
457 221 720 30 200 30 514 0 711 -34 223 -90 422 -172 615 -335 783 -1051
1345 -1880 1476 -83 13 -325 36 -384 36 -20 0 -20 6 -17 550 l2 550 -838 0
-837 0 -81 -82z m1025 -135 c-53 -59 -118 -116 -115 -101 3 21 17 39 25 33 5
-2 20 9 35 25 14 17 23 30 20 30 -4 0 -1 7 6 15 7 8 16 13 20 10 4 -3 13 2 20
10 7 8 15 15 17 15 3 0 -10 -17 -28 -37z m-175 -175 c-62 -67 -103 -102 -100
-86 3 21 17 39 25 33 5 -2 20 9 35 25 14 17 23 30 20 30 -4 0 -1 7 6 15 7 8
16 12 21 10 5 -3 14 3 21 14 7 11 14 18 17 16 2 -3 -18 -28 -45 -57z m-160
-160 c-62 -67 -103 -102 -100 -86 3 21 17 39 25 33 5 -2 20 9 35 25 14 17 23
30 20 30 -4 0 -1 7 6 15 7 8 16 12 21 10 5 -3 14 3 21 14 7 11 14 18 17 16 2
-3 -18 -28 -45 -57z m-160 -160 c-62 -67 -103 -102 -100 -86 3 21 17 39 25 33
5 -2 20 9 35 25 14 17 23 30 20 30 -4 0 -1 7 6 15 7 8 16 12 21 10 5 -3 14 3
21 14 7 11 14 18 17 16 2 -3 -18 -28 -45 -57z m-702 -235 l227 -226 30 31 c16
18 27 32 24 32 -3 0 0 7 7 15 7 8 16 13 20 10 4 -2 19 9 34 25 14 17 23 30 20
30 -4 0 -1 7 6 15 7 8 16 13 20 10 5 -3 16 5 25 17 10 13 15 17 14 11 -2 -7
-46 -55 -97 -107 -52 -52 -91 -100 -87 -106 3 -5 11 -7 17 -4 6 4 8 3 5 -3 -3
-5 61 -76 144 -157 82 -81 149 -151 149 -155 0 -4 -74 67 -165 158 -141 141
-168 164 -178 151 -31 -37 -95 -91 -94 -79 4 22 18 40 27 34 11 -7 52 50 43
59 -4 4 0 4 10 0 9 -3 17 -3 17 2 0 4 -102 110 -227 236 -126 126 -229 231
-230 233 -7 13 28 -22 239 -232z m542 75 c-62 -67 -103 -102 -100 -86 3 21 17
39 25 33 5 -2 20 9 35 25 14 17 23 30 20 30 -4 0 -1 7 6 15 7 8 16 12 21 10 5
-3 14 3 21 14 7 11 14 18 17 16 2 -3 -18 -28 -45 -57z m-480 -480 c-62 -67
-103 -102 -100 -86 3 21 17 39 25 33 5 -2 20 9 35 25 14 17 23 30 20 30 -4 0
-1 7 6 15 7 8 16 12 21 10 5 -3 14 3 21 14 7 11 14 18 17 16 2 -3 -18 -28 -45
-57z m2025 36 c195 -47 365 -184 460 -372 63 -123 81 -330 41 -470 -80 -283
-303 -472 -602 -507 l-58 -7 -2 686 -3 686 49 0 c28 0 79 -7 115 -16z m-2185
-196 c-62 -67 -103 -102 -100 -86 3 21 17 39 25 33 5 -2 20 9 35 25 14 17 23
30 20 30 -4 0 -1 7 6 15 7 8 16 12 21 10 5 -3 14 3 21 14 7 11 14 18 17 16 2
-3 -18 -28 -45 -57z m-160 -160 c-62 -67 -103 -102 -100 -86 3 21 17 39 25 33
5 -2 20 9 35 25 14 17 23 30 20 30 -4 0 -1 7 6 15 7 8 16 12 21 10 5 -3 14 3
21 14 7 11 14 18 17 16 2 -3 -18 -28 -45 -57z m3738 -447 c231 -59 409 -227
485 -456 22 -68 26 -98 27 -200 0 -207 -58 -349 -199 -490 -137 -137 -283
-198 -475 -199 -127 -1 -187 13 -305 69 -478 228 -517 904 -70 1190 155 99
358 131 537 86z m-1200 -882 c14 -11 34 -40 44 -64 14 -38 15 -52 5 -85 -14
-46 -59 -87 -105 -96 -47 -8 -120 25 -140 65 -21 40 -20 106 1 142 37 62 134
80 195 38z m-512 -178 c-11 -22 -29 -35 -36 -28 -7 6 27 47 39 47 4 0 3 -9 -3
-19z m260 -221 c45 -24 41 -34 -30 -76 l-68 -41 -4 69 c-2 38 -2 71 0 73 5 4
82 -15 102 -25z m-199 -42 c29 -36 23 -52 -38 -115 -53 -54 -58 -56 -61 -34
-7 47 6 71 40 71 45 0 70 25 56 56 -6 13 -15 24 -20 24 -4 0 -8 5 -8 10 0 16
10 12 31 -12z m709 -23 c43 -22 64 -75 30 -75 -4 0 -38 -18 -74 -40 -109 -66
-135 -77 -146 -60 -12 19 -13 91 -1 108 12 19 122 81 144 82 10 0 31 -7 47
-15z m-1061 -41 c6 -15 9 -41 5 -60 -5 -26 -2 -35 10 -40 17 -6 23 -34 7 -34
-11 0 -32 51 -35 87 -1 15 -6 38 -10 51 -10 31 8 28 23 -4z m642 -1 c29 -77
30 -75 -82 -142 l-104 -60 -6 62 c-4 47 -2 66 9 80 8 9 19 17 23 17 5 0 34 16
66 35 71 42 81 43 94 8z m479 -118 c-14 -42 -60 -82 -103 -90 -60 -10 -127 24
-77 40 12 4 58 29 103 55 45 27 83 44 85 39 2 -5 -2 -24 -8 -44z m-503 -78
c-26 -35 -118 -87 -153 -87 -16 0 -22 6 -21 19 0 10 6 17 12 15 5 -2 46 18 90
44 44 27 84 47 88 44 4 -2 -3 -18 -16 -35z m1385 -16 c232 -60 417 -236 488
-466 22 -73 38 -261 23 -281 -4 -5 -39 -28 -78 -49 -38 -22 -78 -44 -87 -50
-9 -5 -29 -17 -45 -26 -15 -9 -68 -40 -118 -69 -49 -29 -110 -64 -135 -78 -25
-14 -141 -81 -257 -149 -117 -68 -217 -123 -223 -123 -14 0 -107 47 -114 58
-3 5 25 26 62 47 131 76 287 166 302 175 8 5 79 45 157 90 78 44 145 86 149
92 4 6 3 8 -3 5 -5 -3 -10 0 -10 8 0 18 9 19 24 4 9 -9 19 -6 41 10 17 11 33
21 37 21 4 0 40 19 79 43 39 23 82 48 96 55 14 7 36 21 50 32 23 17 24 21 9
35 -14 14 -28 8 -155 -66 -76 -44 -149 -87 -161 -95 -13 -8 -26 -15 -30 -16
-5 -1 -31 -16 -60 -35 -29 -18 -54 -33 -56 -33 -3 0 -34 -17 -68 -38 -35 -22
-85 -51 -111 -65 -26 -14 -125 -71 -221 -127 -95 -55 -178 -100 -183 -100 -12
0 -90 78 -83 83 9 9 159 97 163 97 3 0 33 17 68 39 35 21 124 73 198 116 74
43 138 83 141 88 3 5 8 8 10 6 6 -3 87 39 93 49 3 5 0 16 -7 25 -11 15 -29 7
-162 -70 -82 -48 -151 -90 -153 -95 -2 -4 -9 -8 -14 -8 -6 0 -89 -45 -184
-100 -95 -55 -179 -100 -187 -100 -8 0 -26 23 -41 50 -25 47 -26 51 -9 57 10
4 34 16 53 28 19 12 60 35 90 52 50 27 387 221 467 269 37 21 39 26 18 44 -12
10 -37 -1 -144 -64 -72 -42 -132 -76 -135 -76 -2 0 -72 -40 -155 -90 -83 -49
-153 -90 -157 -90 -3 0 -19 -10 -36 -21 -33 -24 -40 -20 -57 30 -22 68 -30 61
295 247 277 158 298 173 258 188 -15 6 -72 -22 -192 -96 -34 -21 -64 -38 -67
-38 -3 0 -53 -28 -112 -63 -181 -106 -200 -117 -207 -110 -3 3 -6 34 -6 67 l0
61 202 115 c111 63 207 121 214 128 7 7 15 12 16 11 2 -1 13 1 26 5 25 8 29
28 9 45 -14 11 -54 -11 -345 -181 -56 -33 -105 -58 -109 -55 -9 9 35 143 52
157 8 7 12 17 8 23 -3 6 -1 7 6 3 6 -4 70 27 145 70 119 69 133 80 125 96 -11
21 -42 17 -67 -8 -7 -8 -17 -14 -22 -14 -4 0 -38 -18 -75 -41 -37 -22 -69 -38
-72 -35 -10 10 71 108 129 157 167 139 403 193 610 140z m-3073 -49 c25 -21
69 -54 96 -72 28 -19 75 -50 105 -71 64 -43 300 -166 382 -199 l56 -23 39 42
c44 46 48 48 57 25 3 -9 2 -12 -5 -8 -13 7 -73 -51 -65 -64 3 -5 32 -17 66
-27 57 -17 61 -21 72 -59 7 -23 13 -94 13 -161 0 -106 -3 -131 -29 -209 -58
-175 -180 -316 -347 -399 -189 -94 -376 -101 -569 -20 -246 102 -420 362 -420
626 0 223 115 443 296 568 55 37 163 89 188 89 10 0 39 -17 65 -38z m1816
-161 c-19 -18 -138 -82 -148 -78 -13 4 41 67 67 77 29 12 92 12 81 1z m106
-89 c11 -32 10 -37 -12 -53 -13 -11 -40 -27 -59 -38 -19 -10 -54 -29 -77 -41
-48 -27 -66 -23 -93 22 -25 41 -25 54 -2 62 9 3 57 30 107 60 82 51 91 54 107
39 9 -8 22 -31 29 -51z m-55 -147 c-11 -8 -27 -15 -35 -15 -9 1 -2 7 14 15 39
18 44 18 21 0z m-346 -355 c0 -25 5 -25 47 1 33 20 35 21 108 4 41 -9 77 -20
79 -24 3 -4 -48 -39 -112 -77 -99 -60 -117 -74 -119 -97 l-2 -27 32 16 c18 9
80 45 138 80 58 35 113 66 122 70 17 6 117 -50 117 -65 0 -4 -28 -23 -62 -43
-309 -174 -348 -199 -348 -224 0 -13 2 -24 5 -24 7 0 128 69 294 167 69 41
134 76 146 79 16 4 31 -5 59 -36 l38 -42 -114 -67 c-62 -37 -171 -100 -243
-141 -71 -41 -132 -77 -135 -80 -3 -3 -14 -10 -25 -16 -11 -6 -21 -24 -23 -39
l-4 -28 44 25 c24 14 120 69 213 123 277 160 304 175 313 175 11 0 48 -68 56
-105 4 -19 3 -25 -2 -17 -10 15 5 23 -342 -178 -107 -62 -214 -124 -237 -137
-32 -18 -43 -31 -43 -49 0 -13 4 -24 8 -24 4 0 41 20 81 45 40 25 74 45 76 45
5 0 179 100 360 207 11 7 27 15 35 19 8 4 29 18 47 31 l32 23 12 -21 c6 -12
12 -42 12 -66 l2 -45 -195 -114 c-107 -62 -247 -142 -310 -178 -145 -83 -163
-97 -158 -124 3 -23 3 -23 288 143 30 17 114 66 185 107 72 42 147 86 168 98
l37 22 0 -75 c0 -52 -4 -77 -13 -79 -20 -5 -292 -161 -295 -170 -2 -4 -8 -8
-13 -8 -14 0 -343 -190 -351 -204 -4 -6 -8 -19 -8 -30 0 -27 3 -25 255 124 44
26 98 57 120 69 22 12 49 27 60 34 74 47 214 127 222 127 3 0 2 -17 -2 -37 -9
-52 -51 -130 -78 -146 -68 -42 -281 -165 -337 -195 -36 -19 -108 -62 -160 -94
-93 -59 -96 -60 -149 -53 -135 17 -234 56 -341 136 -125 93 -220 236 -255 386
-26 107 -17 283 18 381 78 222 250 381 477 443 36 10 89 18 118 18 46 1 52 -1
52 -19z m2036 -77 c-21 -62 -65 -135 -77 -128 -5 4 -9 1 -9 -4 0 -6 -7 -11
-15 -11 -8 0 -15 -5 -15 -11 0 -5 -6 -7 -12 -3 -7 4 -2 -6 12 -21 l25 -29 -29
21 -30 21 -50 -33 c-28 -18 -136 -81 -241 -141 -104 -59 -192 -111 -195 -114
-12 -17 -53 -20 -116 -10 -108 17 -108 20 2 86 114 67 388 225 454 261 61 34
68 42 50 53 -8 5 -12 12 -8 15 3 4 15 1 25 -6 17 -10 35 -3 129 53 60 35 111
61 112 56 2 -5 -3 -29 -12 -55z m-184 -283 c-79 -75 -193 -139 -288 -164 -116
-30 -114 -29 168 132 53 30 94 60 91 65 -3 6 -1 7 5 3 14 -8 84 28 74 39 -4 5
-1 4 7 0 11 -7 -2 -24 -57 -75z m-1338 -754 c-9 -23 -113 -108 -176 -145 -56
-31 -194 -81 -225 -81 -18 0 42 38 224 141 20 11 60 35 88 52 100 62 100 62
89 33z m366 -320 c0 -3 -4 -8 -10 -11 -5 -3 -10 -1 -10 4 0 6 5 11 10 11 6 0
10 -2 10 -4z"/>
<path d="M4780 3252 c-73 -43 -103 -61 -182 -105 -39 -21 -49 -43 -24 -53 12
-5 71 22 126 55 8 6 57 34 107 64 90 53 95 60 58 79 -5 3 -44 -15 -85 -40z"/>
<path d="M4915 3135 c-49 -30 -97 -58 -105 -62 -8 -4 -41 -22 -73 -41 -55 -32
-58 -35 -42 -52 18 -20 6 -26 230 106 129 77 121 70 106 88 -8 9 -16 16 -20
15 -3 0 -46 -25 -96 -54z"/>
<path d="M5030 3007 c-58 -35 -134 -79 -168 -97 -34 -19 -62 -38 -62 -42 0 -4
9 -12 20 -18 17 -9 31 -5 78 23 156 94 213 127 218 127 3 0 19 9 35 21 24 17
27 24 18 35 -6 8 -17 14 -23 14 -6 0 -58 -29 -116 -63z"/>
<path d="M5239 2932 c-13 -10 -49 -31 -79 -46 -30 -16 -66 -38 -79 -48 -13
-10 -27 -18 -32 -18 -4 0 -35 -16 -69 -37 -56 -33 -60 -37 -45 -52 14 -14 20
-13 73 14 31 17 112 63 180 103 113 67 122 75 105 87 -23 18 -26 18 -54 -3z"/>
<path d="M5360 2807 c-14 -8 -43 -24 -65 -37 -39 -23 -87 -51 -188 -109 -52
-30 -58 -40 -35 -55 11 -6 34 1 79 26 58 31 258 147 268 155 5 3 -20 33 -28
33 -3 0 -17 -6 -31 -13z"/>
<path d="M4286 6945 c-70 -25 -126 -110 -126 -191 1 -38 34 -112 63 -137 34
-30 98 -57 137 -57 76 0 189 86 174 132 -4 13 -2 18 4 14 13 -8 22 17 22 57
-1 96 -106 198 -202 197 -18 -1 -50 -7 -72 -15z m124 -116 c61 -61 110 -114
108 -119 -2 -4 -55 46 -119 111 -63 66 -112 119 -108 119 4 0 57 -50 119 -111z"/>
<path d="M4835 6790 l29 -30 -29 -30 c-16 -16 -24 -30 -19 -30 6 0 23 14 39
30 l29 30 -29 30 c-16 17 -33 30 -39 30 -5 0 3 -13 19 -30z"/>
<path d="M5025 6790 l29 -30 -29 -30 c-16 -16 -24 -30 -19 -30 6 0 23 14 39
30 l29 30 -29 30 c-16 17 -33 30 -39 30 -5 0 3 -13 19 -30z"/>
<path d="M5215 6790 l29 -30 -29 -30 c-16 -16 -24 -30 -19 -30 6 0 23 14 39
30 l29 30 -29 30 c-16 17 -33 30 -39 30 -5 0 3 -13 19 -30z"/>
<path d="M5405 6790 l29 -30 -29 -30 c-16 -16 -24 -30 -19 -30 6 0 23 14 39
30 l29 30 -29 30 c-16 17 -33 30 -39 30 -5 0 3 -13 19 -30z"/>
<path d="M5594 6791 l28 -30 -26 -26 c-15 -15 -25 -30 -21 -33 3 -3 20 8 37
26 l32 32 -29 30 c-16 16 -33 30 -39 30 -5 0 3 -13 18 -29z"/>
<path d="M1079 5113 c-13 -16 -12 -17 4 -4 16 13 21 21 13 21 -2 0 -10 -8 -17
-17z"/>
<path d="M5810 1703 c-41 -25 -212 -124 -380 -221 -168 -96 -318 -183 -335
-193 -16 -11 -37 -22 -45 -26 -8 -4 -58 -32 -110 -63 -52 -31 -176 -103 -275
-160 -99 -57 -208 -120 -242 -141 -34 -22 -65 -39 -68 -39 -3 0 -35 -18 -71
-40 -36 -22 -68 -40 -70 -40 -4 0 -79 -44 -156 -92 -41 -26 -46 -32 -34 -44 8
-8 17 -14 21 -14 6 0 57 28 242 136 50 30 149 87 220 127 335 192 471 271 503
291 32 21 157 92 239 138 33 18 134 77 281 163 30 18 71 42 90 53 19 11 80 46
135 78 55 31 116 66 135 76 34 19 40 35 17 50 -16 11 -13 12 -97 -39z"/>
<path d="M5880 1547 c-41 -24 -199 -115 -350 -202 -283 -163 -371 -214 -523
-303 -48 -29 -89 -52 -92 -52 -2 0 -44 -24 -92 -53 -48 -29 -135 -79 -193
-112 -58 -33 -107 -62 -110 -65 -3 -4 -18 -13 -35 -21 -16 -8 -103 -57 -193
-108 -159 -91 -163 -94 -141 -109 21 -14 25 -14 58 5 20 11 124 71 231 133
270 156 449 260 485 279 16 9 75 43 130 75 282 166 348 204 570 331 346 198
329 187 332 218 1 15 1 27 0 27 -1 0 -36 -19 -77 -43z"/>
<path d="M5905 1366 c-33 -18 -116 -66 -185 -106 -148 -86 -330 -191 -512
-296 -73 -42 -137 -80 -143 -84 -5 -4 -35 -21 -65 -37 -30 -17 -165 -94 -300
-173 -135 -78 -267 -155 -295 -170 -135 -74 -150 -86 -150 -113 -1 -15 0 -27
2 -27 1 0 85 48 185 106 101 58 230 133 288 166 235 136 290 168 405 235 66
39 138 81 160 93 22 12 69 39 105 60 36 21 81 47 100 58 19 10 105 60 190 109
85 49 176 101 201 115 80 45 89 52 89 75 0 29 -3 29 -75 -11z"/>
<path d="M5892 1165 c-40 -25 -75 -45 -78 -45 -3 0 -30 -16 -60 -35 -30 -19
-56 -35 -58 -35 -2 0 -82 -45 -177 -101 -308 -179 -876 -507 -999 -577 -25
-14 -79 -45 -120 -70 -41 -25 -93 -55 -115 -67 -22 -12 -69 -39 -105 -60 -36
-21 -90 -51 -120 -67 -30 -17 -73 -48 -95 -69 -39 -38 -39 -39 -14 -39 14 0
94 41 180 91 84 50 161 94 169 97 8 4 60 33 115 66 243 142 293 171 510 297
127 72 232 136 233 141 2 4 9 8 16 8 7 0 130 68 272 151 142 83 279 163 304
177 193 108 230 133 230 158 0 13 -3 24 -8 24 -4 0 -40 -20 -80 -45z"/>
<path d="M5935 993 c-16 -9 -127 -72 -245 -141 -118 -69 -244 -142 -280 -162
-36 -20 -162 -93 -281 -162 -119 -70 -235 -137 -259 -150 -23 -12 -50 -27 -59
-33 -17 -10 -216 -126 -287 -167 -22 -12 -99 -57 -170 -98 l-129 -75 42 -3
c43 -3 59 4 183 78 25 15 122 71 215 125 94 54 211 121 260 150 111 65 328
191 375 218 19 10 72 41 118 68 45 27 85 49 87 49 2 0 37 20 77 44 108 65 234
138 311 181 69 38 82 51 75 79 -3 13 -7 12 -33 -1z"/>
<path d="M5735 684 c-218 -126 -451 -261 -670 -387 -77 -45 -171 -99 -210
-122 -38 -23 -121 -71 -183 -106 l-113 -64 43 -3 c39 -3 59 6 168 69 69 40
141 81 160 92 52 29 215 124 298 173 40 24 74 44 76 44 2 0 66 37 142 81 77
45 159 93 184 107 25 14 78 44 117 68 40 24 75 44 78 44 2 0 29 16 59 35 36
23 55 42 58 60 3 14 2 25 -1 25 -3 0 -96 -52 -206 -116z"/>
<path d="M3705 681 c-6 -4 -35 -22 -65 -38 -115 -63 -127 -72 -127 -98 0 -31
3 -31 58 3 24 15 83 50 131 77 49 27 87 49 85 50 -10 9 -75 13 -82 6z"/>
<path d="M3843 567 c-67 -40 -122 -75 -123 -79 0 -4 11 -10 24 -14 19 -4 51 9
131 55 58 34 110 61 115 61 6 0 10 3 10 8 -1 8 -25 42 -31 42 -2 -1 -59 -33
-126 -73z"/>
<path d="M5744 494 c-446 -259 -745 -431 -794 -458 l-55 -31 43 -3 c37 -3 57
4 125 44 45 26 111 64 147 84 68 39 410 237 515 298 33 19 79 46 102 59 45 26
69 50 60 60 -4 3 -2 12 4 20 6 7 10 13 7 13 -2 0 -71 -39 -154 -86z"/>
<path d="M4005 464 c-38 -24 -89 -53 -113 -65 -51 -27 -54 -31 -44 -58 7 -19
14 -17 125 49 65 39 122 70 127 70 16 0 22 21 10 35 -17 21 -26 18 -105 -31z"/>
<path d="M4113 332 c-45 -26 -85 -50 -88 -54 -4 -3 14 -6 39 -6 33 0 57 7 91
30 25 16 45 34 45 38 0 5 3 15 6 24 9 24 -4 20 -93 -32z"/>
<path d="M5715 282 c-55 -32 -181 -105 -280 -161 -99 -57 -184 -108 -189 -112
-6 -5 9 -9 35 -9 38 0 65 12 174 77 72 42 174 101 229 132 78 45 102 63 117
93 11 21 18 38 17 38 -2 0 -48 -26 -103 -58z"/>
<path d="M3870 191 c-25 -15 -108 -64 -185 -107 l-140 -79 42 -3 c62 -5 167
54 263 145 41 40 73 73 70 73 -3 0 -25 -13 -50 -29z"/>
<path d="M3510 155 c0 -28 3 -29 31 -14 16 8 18 13 8 25 -18 22 -39 17 -39
-11z"/>
<path d="M5625 35 l-60 -34 45 -1 c40 0 48 4 64 31 10 17 16 32 14 34 -2 2
-31 -11 -63 -30z"/>
</g>
</svg>
